<svg width="209" height="105" viewBox="0 0 209 105" fill="none" xmlns="http://www.w3.org/2000/svg">
<g filter="url(#filter0_d_111_13759)">
<path d="M18 50.3393V74.0937H25.8453V67.8836H28.3925C34.4378 67.8836 39.0567 65.7797 39.0567 59.1285C39.0567 52.4433 34.4378 50.3393 28.3925 50.3393H18ZM31.2793 59.1285C31.2793 60.7573 30.1246 61.436 28.3246 61.436H25.8453V56.787H28.3246C30.1246 56.787 31.2793 57.4657 31.2793 59.1285Z" fill="white"/>
<path d="M41.4155 50.3393V74.0937H59.4155V67.2389H49.2608V50.3393H41.4155Z" fill="white"/>
<path d="M67.6591 74.0937L68.7119 70.9378H76.9308L77.9497 74.0937H85.8969L77.0327 50.3393H68.6101L59.7119 74.0937H67.6591ZM72.1761 60.2144C72.4138 59.3321 72.6516 58.3819 72.8214 57.1602C72.9912 58.3819 73.2289 59.3321 73.5006 60.2144L75.1648 65.2707H70.512L72.1761 60.2144Z" fill="white"/>
<path d="M85.3718 62.4541C85.3718 71.1075 91.8587 74.6367 98.5832 74.6367C101.096 74.6367 103.44 74.1616 105.545 73.2114V66.0512C104.323 67.1371 102.047 67.7479 99.6021 67.7479C96.4775 67.7479 93.4209 66.1869 93.4209 62.4541C93.4209 58.2122 96.5115 56.5833 99.7719 56.5833C101.878 56.5833 104.051 57.296 105.376 58.2122V51.2216C103.27 50.2715 100.825 49.7964 98.3794 49.7964C91.8587 49.7964 85.3379 53.4274 85.3718 62.4541Z" fill="white"/>
<path d="M108.412 50.3393V74.0937H126.615V67.8497H116.257V65.0331H125.189V59.2642H116.257V56.5155H126.412V50.3393H108.412Z" fill="white"/>
<rect x="145.191" y="50.2793" width="7.93625" height="23.8088" fill="#4656E3"/>
<path d="M169 58.2154C159.476 58.2154 153.18 68.8235 153.127 74.0879H145.191C145.191 66.1516 153.127 50.2791 169 50.2791V58.2154Z" fill="#4D5EF6"/>
<path d="M135.747 50.2788L130.118 50.2788C130.117 59.5085 135.747 65.887 140.641 65.887C145.191 65.887 150.675 59.3423 150.675 50.2788L145.191 50.2788C145.191 53.6857 142.599 59.7687 140.641 59.7687C138.683 59.7687 135.747 53.7542 135.747 50.2788Z" fill="#F64D4D"/>
<path d="M169 66.1518C159.476 66.1518 153.18 55.5437 153.127 50.2793H145.191C145.191 58.2155 153.127 74.0881 169 74.0881V66.1518Z" fill="#FE5F5F"/>
<rect x="127.811" y="50.2793" width="7.93625" height="23.8088" fill="#E34646"/>
<rect x="145.191" y="40.2793" width="7.93625" height="7.93625" fill="#FE5F5F"/>
<path d="M68.2686 48.0546H66.5517V43.2654H66.5145L64.6169 47.9749H63.5006L61.6083 43.2654H61.5658V48.0546H59.8489V40.3844H62.1026L64.0375 45.3118H64.08L66.0149 40.3844H68.2686V48.0546Z" fill="white"/>
<path d="M73.9881 46.3696H71.4792L70.9902 48.0546H69.0022L71.5802 40.3844H73.9668L76.5449 48.0546H74.4718L73.9881 46.3696ZM71.8566 44.9663H73.6054L72.7549 42.0109H72.7124L71.8566 44.9663Z" fill="white"/>
<path d="M80.4146 40.3844C81.5769 40.3844 82.4787 40.7104 83.1201 41.3624C83.7651 42.0215 84.0876 42.9588 84.0876 44.1743C84.0876 45.3969 83.7651 46.3501 83.1201 47.034C82.4752 47.7144 81.5733 48.0546 80.4146 48.0546H77.2837V40.3844H80.4146ZM79.2345 46.4812H80.1541C81.4546 46.4812 82.1049 45.714 82.1049 44.1796C82.1049 43.4638 81.9348 42.9128 81.5946 42.5265C81.2544 42.1473 80.7742 41.9577 80.1541 41.9577H79.2345V46.4812Z" fill="white"/>
<path d="M90.3014 48.0546H85.0444V40.3844H90.3014V41.9577H86.9951V43.4833H90.1047V44.9185H86.9951V46.4812H90.3014V48.0546Z" fill="white"/>
<path d="M93.6023 48.0546V40.3844H95.5531V48.0546H93.6023Z" fill="white"/>
<path d="M96.7172 48.0546V40.3844H98.2746L101.528 44.8441H101.57V40.3844H103.42V48.0546H101.879L98.6095 43.5524H98.567V48.0546H96.7172Z" fill="white"/>
<path d="M106.785 48.0546V40.3844H108.736V43.7544H108.778L111.388 40.3844H113.482L110.809 43.7916L113.636 48.0546H111.345L109.389 45.0567L108.736 45.8859V48.0546H106.785Z" fill="white"/>
<path d="M117.495 40.2515C118.658 40.2515 119.579 40.6076 120.26 41.3199C120.94 42.0322 121.28 42.9996 121.28 44.2221C121.28 45.4447 120.94 46.4104 120.26 47.1191C119.579 47.8314 118.658 48.1875 117.495 48.1875C116.33 48.1875 115.406 47.8314 114.726 47.1191C114.046 46.4104 113.706 45.4447 113.706 44.2221C113.706 42.9996 114.047 42.0322 114.731 41.3199C115.412 40.6076 116.333 40.2515 117.495 40.2515ZM117.495 41.8355C116.95 41.8355 116.514 42.0499 116.188 42.4787C115.858 42.911 115.694 43.4921 115.694 44.2221C115.694 44.9486 115.857 45.528 116.183 45.9603C116.509 46.3891 116.946 46.6035 117.495 46.6035C118.041 46.6035 118.477 46.3891 118.803 45.9603C119.133 45.528 119.297 44.9486 119.297 44.2221C119.297 43.4921 119.133 42.911 118.803 42.4787C118.477 42.0499 118.041 41.8355 117.495 41.8355Z" fill="white"/>
<path d="M124.182 44.0361H125.336C125.694 44.0361 125.974 43.9387 126.176 43.7437C126.378 43.5488 126.479 43.2848 126.479 42.9517C126.479 42.6222 126.374 42.3582 126.165 42.1597C125.956 41.9577 125.678 41.8567 125.331 41.8567H124.182V44.0361ZM124.182 48.0546H122.232V40.3844H125.527C126.477 40.3844 127.207 40.6076 127.717 41.0541C128.22 41.4935 128.472 42.1137 128.472 42.9145C128.472 43.3965 128.359 43.8288 128.132 44.2115C127.898 44.6119 127.575 44.9025 127.164 45.0833L128.695 48.0546H126.505L125.192 45.3703H124.182V48.0546Z" fill="white"/>
<path d="M134.707 48.0546H129.45V40.3844H134.707V41.9577H131.401V43.4833H134.51V44.9185H131.401V46.4812H134.707V48.0546Z" fill="white"/>
<path d="M140.368 46.3696H137.859L137.37 48.0546H135.382L137.96 40.3844H140.347L142.925 48.0546H140.852L140.368 46.3696ZM138.237 44.9663H139.985L139.135 42.0109H139.092L138.237 44.9663Z" fill="white"/>
</g>
<defs>
<filter id="filter0_d_111_13759" x="-22" y="0.251465" width="231" height="114.385" filterUnits="userSpaceOnUse" color-interpolation-filters="sRGB">
<feFlood flood-opacity="0" result="BackgroundImageFix"/>
<feColorMatrix in="SourceAlpha" type="matrix" values="0 0 0 0 0 0 0 0 0 0 0 0 0 0 0 0 0 0 127 0" result="hardAlpha"/>
<feOffset/>
<feGaussianBlur stdDeviation="20"/>
<feColorMatrix type="matrix" values="0 0 0 0 0 0 0 0 0 0 0 0 0 0 0 0 0 0 0.12 0"/>
<feBlend mode="normal" in2="BackgroundImageFix" result="effect1_dropShadow_111_13759"/>
<feBlend mode="normal" in="SourceGraphic" in2="effect1_dropShadow_111_13759" result="shape"/>
</filter>
</defs>
</svg>
