<svg width="156" height="33" viewBox="0 0 156 33" fill="none" xmlns="http://www.w3.org/2000/svg">
<path d="M4.88672 4.9375L10.4648 18.8594L16.043 4.9375H18.9609V22H16.7109V15.3555L16.9219 8.18359L11.3203 22H9.59766L4.00781 8.21875L4.23047 15.3555V22H1.98047V4.9375H4.88672ZM32.5664 17.5469H25.418L23.8125 22H21.4922L28.0078 4.9375H29.9766L36.5039 22H34.1953L32.5664 17.5469ZM26.0977 15.6953H31.8984L28.9922 7.71484L26.0977 15.6953ZM45.0586 15.0977H41.0508V22H38.7891V4.9375H44.4375C46.3594 4.9375 47.8359 5.375 48.8672 6.25C49.9062 7.125 50.4258 8.39844 50.4258 10.0703C50.4258 11.1328 50.1367 12.0586 49.5586 12.8477C48.9883 13.6367 48.1914 14.2266 47.168 14.6172L51.1758 21.8594V22H48.7617L45.0586 15.0977ZM41.0508 13.2578H44.5078C45.625 13.2578 46.5117 12.9688 47.168 12.3906C47.832 11.8125 48.1641 11.0391 48.1641 10.0703C48.1641 9.01562 47.8477 8.20703 47.2148 7.64453C46.5898 7.08203 45.6836 6.79688 44.4961 6.78906H41.0508V13.2578ZM55.8398 15.3203V22H53.5898V4.9375H59.8828C61.75 4.9375 63.2109 5.41406 64.2656 6.36719C65.3281 7.32031 65.8594 8.58203 65.8594 10.1523C65.8594 11.8086 65.3398 13.0859 64.3008 13.9844C63.2695 14.875 61.7891 15.3203 59.8594 15.3203H55.8398ZM55.8398 13.4805H59.8828C61.0859 13.4805 62.0078 13.1992 62.6484 12.6367C63.2891 12.0664 63.6094 11.2461 63.6094 10.1758C63.6094 9.16016 63.2891 8.34766 62.6484 7.73828C62.0078 7.12891 61.1289 6.8125 60.0117 6.78906H55.8398V13.4805ZM70.9922 20.1602H79.0781V22H68.7305V4.9375H70.9922V20.1602ZM91.2891 14.1133H83.8945V20.1602H92.4844V22H81.6445V4.9375H92.3672V6.78906H83.8945V12.2734H91.2891V14.1133Z" fill="black"/>
</svg>
