<svg width="17" height="17" viewBox="0 0 17 17" fill="none" xmlns="http://www.w3.org/2000/svg">
<g clip-path="url(#clip0_111_13804)">
<path d="M15.7529 13.7146H1.72697C1.29685 13.7146 0.947754 14.0637 0.947754 14.4938C0.947754 14.924 1.29685 15.2731 1.72697 15.2731H15.7529C16.1831 15.2731 16.5322 14.924 16.5322 14.4938C16.5322 14.0637 16.1831 13.7146 15.7529 13.7146ZM1.72697 2.80551H15.7529C16.1831 2.80551 16.5322 2.45644 16.5322 2.02629C16.5322 1.59614 16.1831 1.24707 15.7529 1.24707H1.72697C1.29685 1.2471 0.947754 1.59617 0.947754 2.02632C0.947754 2.45644 1.29685 2.80551 1.72697 2.80551ZM15.7529 7.48083H1.72697C1.29685 7.48083 0.947754 7.82993 0.947754 8.26008C0.947754 8.69023 1.29685 9.0393 1.72697 9.0393H15.7529C16.1831 9.0393 16.5322 8.69021 16.5322 8.26008C16.5322 7.82996 16.1831 7.48083 15.7529 7.48083Z" fill="white"/>
</g>
<defs>
<clipPath id="clip0_111_13804">
<rect width="15.5844" height="15.5844" fill="white" transform="translate(0.947754 0.467773)"/>
</clipPath>
</defs>
</svg>
