<svg width="24" height="25" viewBox="0 0 24 25" fill="none" xmlns="http://www.w3.org/2000/svg">
<path d="M17.8631 6.61711C17.8631 10.1727 14.9808 13.055 11.4252 13.055C7.86968 13.055 4.98733 10.1727 4.98733 6.61711C4.98733 3.06155 7.86968 0.179199 11.4252 0.179199C14.9808 0.179199 17.8631 3.06155 17.8631 6.61711ZM6.53243 6.61711C6.53243 9.31933 8.72301 11.5099 11.4252 11.5099C14.1275 11.5099 16.318 9.31933 16.318 6.61711C16.318 3.91488 14.1275 1.7243 11.4252 1.7243C8.72301 1.7243 6.53243 3.91488 6.53243 6.61711Z" fill="black"/>
<path d="M21.0823 23.1717C21.0823 21.9036 20.8325 20.6478 20.3472 19.4762C19.8619 18.3046 19.1506 17.24 18.2539 16.3433C17.3571 15.4466 16.2926 14.7353 15.1209 14.25C13.9493 13.7647 12.6936 13.5149 11.4254 13.5149C10.1573 13.5149 8.90152 13.7647 7.7299 14.25C6.55827 14.7353 5.49371 15.4466 4.59698 16.3433C3.70026 17.24 2.98894 18.3046 2.50364 19.4762C2.01834 20.6478 1.76855 21.9036 1.76855 23.1717H3.31078C3.31078 22.1061 3.52067 21.0509 3.92847 20.0664C4.33627 19.0819 4.93399 18.1873 5.6875 17.4338C6.44102 16.6803 7.33557 16.0826 8.32008 15.6748C9.30459 15.267 10.3598 15.0571 11.4254 15.0571C12.491 15.0571 13.5462 15.267 14.5308 15.6748C15.5153 16.0826 16.4098 16.6803 17.1633 17.4338C17.9168 18.1873 18.5146 19.0819 18.9224 20.0664C19.3302 21.0509 19.5401 22.1061 19.5401 23.1717H21.0823Z" fill="black"/>
</svg>
