<svg width="31" height="28" viewBox="0 0 31 28" fill="none" xmlns="http://www.w3.org/2000/svg">
<g clip-path="url(#clip0_111_13822)">
<path d="M6.61272 5.30419C8.86272 5.55417 10.7376 7.17917 12.4876 9.3042C14.2376 7.17918 16.2499 5.30419 18.7499 5.30419C21.9999 5.30419 23.4821 8.25301 23.1126 10.7602C22.7376 13.3042 21.7498 13.6792 17.3627 19.0542L13.1127 24.0542C12.2838 24.9372 12.6916 24.9372 11.8627 24.0542L10.3627 22.1792L9.1126 20.6792L7.73773 19.0542C3.12476 13.6792 2.05536 12.3042 1.87472 10.7602C1.49963 7.55422 3.6248 4.97223 6.61272 5.30419Z" fill="url(#paint0_linear_111_13822)"/>
<path d="M18.75 3.41748C16.1461 3.41748 14.1758 4.94563 12.5 6.54248C10.9031 4.84795 8.85392 3.41748 6.25 3.41748C2.5828 3.41748 0 6.57059 0 10.0089C0 11.8534 0.755474 13.1823 1.5828 14.43L11.2961 26.0753C12.3867 27.2292 12.5922 27.2292 13.6828 26.0753L23.4179 14.43C24.3906 13.1823 25 11.8534 25 10.0089C25 6.57063 22.4172 3.41748 18.75 3.41748ZM21.875 14.1066L12.5 25.2925L3.125 14.0605C2.00392 12.5019 1.5625 11.4503 1.5625 10.0089C1.5625 7.32295 3.48047 4.90498 6.25 4.88231C8.52815 4.86356 11.1102 7.19011 12.5 8.94403C13.8531 7.25106 16.4719 4.88231 18.75 4.88231C21.4461 4.88231 23.4375 7.32295 23.4375 10.0089C23.4375 11.4503 23.0883 12.58 21.875 14.1066Z" fill="black"/>
</g>
<circle cx="25" cy="6" r="6" fill="#FF4343"/>
<path d="M25.9961 9H25.0508V4.43359L23.6562 4.91016V4.10938L25.875 3.29297H25.9961V9Z" fill="white"/>
<defs>
<linearGradient id="paint0_linear_111_13822" x1="-10.0365" y1="-8.22534" x2="27.1114" y2="-3.38141" gradientUnits="userSpaceOnUse">
<stop stop-color="#F64D4D"/>
<stop offset="1" stop-color="#4D5EF6"/>
</linearGradient>
<clipPath id="clip0_111_13822">
<rect width="25" height="24" fill="white" transform="translate(0 3.1792)"/>
</clipPath>
</defs>
</svg>
