<svg width="30" height="28" viewBox="0 0 30 28" fill="none" xmlns="http://www.w3.org/2000/svg">
<path d="M4.71875 8.1792H22.2447L20.415 15.9792L4.71875 17.3792V8.1792Z" fill="url(#paint0_linear_111_13827)"/>
<path d="M6 20.7792C5.17126 20.7792 4.5 20.0632 4.5 19.1792L21.1089 17.6387C21.4923 17.6031 21.8117 17.3132 21.9035 16.9145C22.4106 14.7133 24 7.76751 24 7.1792C24 6.7376 23.664 6.3792 23.25 6.3792H4.5V4.6192C4.5 3.9792 4.5 4.4208 4.5 3.9792C4.5 3.5376 4.164 3.1792 3.75 3.1792L0.75 3.1792C0.336 3.1792 0 3.5376 0 3.9792C0 4.4208 0.336 4.7792 0.75 4.7792H3V19.1792C3 20.9464 4.34326 22.3792 6 22.3792L19.56 22.3792C19.56 22.3792 18.9911 21.6232 19.4299 22.1392L19.56 22.3792L18 20.9392L6 20.7792ZM4.5 7.9792H22.5L20.5823 16.1616L4.5 17.5792V7.9792Z" fill="black"/>
<path d="M20.925 24.0592C20.925 25.7823 19.6154 27.1792 18 27.1792C16.3846 27.1792 15.075 25.7823 15.075 24.0592C15.075 22.3361 16.3846 20.9392 18 20.9392C19.6154 20.9392 20.925 22.3361 20.925 24.0592ZM16.5701 24.0592C16.5701 24.9015 17.2103 25.5844 18 25.5844C18.7897 25.5844 19.4299 24.9015 19.4299 24.0592C19.4299 23.2169 18.7897 22.534 18 22.534C17.2103 22.534 16.5701 23.2169 16.5701 24.0592Z" fill="black"/>
<path d="M10.35 24.0592C10.35 25.7823 9.04044 27.1792 7.425 27.1792C5.80957 27.1792 4.5 25.7823 4.5 24.0592C4.5 22.3361 5.80957 20.9392 7.425 20.9392C9.04044 20.9392 10.35 22.3361 10.35 24.0592ZM5.99515 24.0592C5.99515 24.9015 6.63532 25.5844 7.425 25.5844C8.21469 25.5844 8.85486 24.9015 8.85486 24.0592C8.85486 23.2169 8.21469 22.534 7.425 22.534C6.63532 22.534 5.99515 23.2169 5.99515 24.0592Z" fill="black"/>
<circle cx="24" cy="6" r="6" fill="#FF4343"/>
<path d="M24.9961 9H24.0508V4.43359L22.6562 4.91016V4.10938L24.875 3.29297H24.9961V9Z" fill="white"/>
<defs>
<linearGradient id="paint0_linear_111_13827" x1="-5.03005" y1="1.79031" x2="24.4904" y2="8.47194" gradientUnits="userSpaceOnUse">
<stop stop-color="#F64D4D"/>
<stop offset="1" stop-color="#4D5EF6"/>
</linearGradient>
</defs>
</svg>
